<svg width="584" height="557" viewBox="0 0 584 557" fill="none" xmlns="http://www.w3.org/2000/svg">
<path d="M272.979 14.541C278.966 -3.88522 305.034 -3.8852 311.021 14.541L366.09 184.024C368.767 192.265 376.446 197.844 385.111 197.844H563.316C582.691 197.844 590.746 222.636 575.072 234.024L430.901 338.771C423.891 343.864 420.958 352.891 423.635 361.132L478.704 530.615C484.691 549.041 463.601 564.364 447.927 552.976L303.756 448.229C296.746 443.136 287.254 443.136 280.244 448.229L136.073 552.976C120.399 564.364 99.3093 549.041 105.296 530.615L160.365 361.132C163.042 352.891 160.109 343.864 153.099 338.771L8.92815 234.024C-6.74613 222.636 1.30942 197.844 20.6839 197.844H198.889C207.554 197.844 215.233 192.265 217.91 184.024L272.979 14.541Z" fill="white"/>
</svg>
