<svg width="1056" height="1109" viewBox="0 0 1056 1109" fill="none" xmlns="http://www.w3.org/2000/svg">
<path opacity="0.8" d="M1054.02 886.833C1058.57 893.103 1052.45 901.539 1045.08 899.144L659.43 773.84C656.133 772.769 652.523 773.942 650.485 776.746L412.143 1104.8C407.588 1111.07 397.671 1107.84 397.671 1100.09L397.671 694.602C397.671 691.136 395.44 688.065 392.143 686.994L6.4978 561.69C-0.872684 559.295 -0.872654 548.868 6.49783 546.473L392.143 421.169C395.44 420.098 397.671 417.026 397.671 413.561L397.671 8.06883C397.671 0.319047 407.588 -2.90312 412.143 3.36659L650.485 331.416C652.523 334.22 656.134 335.393 659.43 334.322L1045.08 209.019C1052.45 206.624 1058.57 215.06 1054.02 221.329L815.677 549.379C813.64 552.183 813.64 555.98 815.677 558.784L1054.02 886.833Z" fill="white"/>
</svg>
